<svg width="250" height="255" viewBox="0 0 250 255" fill="none" xmlns="http://www.w3.org/2000/svg">
<g filter="url(#filter0_f_1_153)">
<rect x="77.9891" y="77" width="94.6109" height="100.515" rx="47.3055" fill="#FFEF9A"/>
</g>
<g filter="url(#filter1_i_1_153)">
<path d="M166.293 135.263C166.293 160.809 147.937 181.518 125.295 181.518C102.652 181.518 84.2965 160.809 84.2965 135.263C84.2965 109.717 102.652 89.0085 125.295 89.0085C147.937 89.0085 166.293 109.717 166.293 135.263Z" fill="url(#paint0_linear_1_153)"/>
</g>
<g filter="url(#filter2_b_1_153)">
<g filter="url(#filter3_i_1_153)">
<path d="M148.682 159.115C148.966 157.289 149.115 155.412 149.115 153.495C149.115 135.566 136.112 121.031 120.072 121.031C108.148 121.031 97.9017 129.064 93.4289 140.552C89.8053 137.055 85.1033 134.944 79.965 134.944C68.5079 134.944 59.22 145.441 59.22 158.39C59.22 159.111 59.2488 159.825 59.3052 160.529C53.7945 163.547 50 169.878 50 177.199C50 187.444 57.4303 195.75 66.596 195.75H144.966C154.132 195.75 161.562 187.444 161.562 177.199C161.562 168.381 156.058 161.001 148.682 159.115Z" fill="url(#paint1_linear_1_153)"/>
</g>
</g>
<defs>
<filter id="filter0_f_1_153" x="0.989136" y="0" width="248.611" height="254.515" filterUnits="userSpaceOnUse" color-interpolation-filters="sRGB">
<feFlood flood-opacity="0" result="BackgroundImageFix"/>
<feBlend mode="normal" in="SourceGraphic" in2="BackgroundImageFix" result="shape"/>
<feGaussianBlur stdDeviation="38.5" result="effect1_foregroundBlur_1_153"/>
</filter>
<filter id="filter1_i_1_153" x="84.2965" y="89.0085" width="81.9962" height="97.5094" filterUnits="userSpaceOnUse" color-interpolation-filters="sRGB">
<feFlood flood-opacity="0" result="BackgroundImageFix"/>
<feBlend mode="normal" in="SourceGraphic" in2="BackgroundImageFix" result="shape"/>
<feColorMatrix in="SourceAlpha" type="matrix" values="0 0 0 0 0 0 0 0 0 0 0 0 0 0 0 0 0 0 127 0" result="hardAlpha"/>
<feOffset dy="5"/>
<feGaussianBlur stdDeviation="9"/>
<feComposite in2="hardAlpha" operator="arithmetic" k2="-1" k3="1"/>
<feColorMatrix type="matrix" values="0 0 0 0 1 0 0 0 0 1 0 0 0 0 1 0 0 0 0.81 0"/>
<feBlend mode="normal" in2="shape" result="effect1_innerShadow_1_153"/>
</filter>
<filter id="filter2_b_1_153" x="23" y="94.0309" width="165.562" height="128.719" filterUnits="userSpaceOnUse" color-interpolation-filters="sRGB">
<feFlood flood-opacity="0" result="BackgroundImageFix"/>
<feGaussianBlur in="BackgroundImageFix" stdDeviation="13.5"/>
<feComposite in2="SourceAlpha" operator="in" result="effect1_backgroundBlur_1_153"/>
<feBlend mode="normal" in="SourceGraphic" in2="effect1_backgroundBlur_1_153" result="shape"/>
</filter>
<filter id="filter3_i_1_153" x="50" y="121.031" width="111.562" height="84.7191" filterUnits="userSpaceOnUse" color-interpolation-filters="sRGB">
<feFlood flood-opacity="0" result="BackgroundImageFix"/>
<feBlend mode="normal" in="SourceGraphic" in2="BackgroundImageFix" result="shape"/>
<feColorMatrix in="SourceAlpha" type="matrix" values="0 0 0 0 0 0 0 0 0 0 0 0 0 0 0 0 0 0 127 0" result="hardAlpha"/>
<feOffset dy="11"/>
<feGaussianBlur stdDeviation="5"/>
<feComposite in2="hardAlpha" operator="arithmetic" k2="-1" k3="1"/>
<feColorMatrix type="matrix" values="0 0 0 0 1 0 0 0 0 1 0 0 0 0 1 0 0 0 1 0"/>
<feBlend mode="normal" in2="shape" result="effect1_innerShadow_1_153"/>
</filter>
<linearGradient id="paint0_linear_1_153" x1="119.067" y1="160.44" x2="159.31" y2="97.8806" gradientUnits="userSpaceOnUse">
<stop stop-color="#FF9900"/>
<stop offset="1" stop-color="#FFEE94"/>
</linearGradient>
<linearGradient id="paint1_linear_1_153" x1="57.0958" y1="189.079" x2="179.018" y2="108.266" gradientUnits="userSpaceOnUse">
<stop stop-color="white"/>
<stop offset="1" stop-color="white" stop-opacity="0.58"/>
</linearGradient>
</defs>
</svg>
