<svg xmlns="http://www.w3.org/2000/svg" width="28" height="44" viewBox="0 0 28 44" fill="none">
  <path d="M0 26.7966C0 29.7704 0.617449 32.5503 1.87919 35.1039C3.14094 37.6575 4.83221 39.7262 6.97986 41.2455C9.12752 42.7647 11.4362 43.5405 13.9329 43.5405C16.4295 43.5405 18.7651 42.7647 20.9396 41.2455C23.1141 39.7262 24.8322 37.6575 26.094 35.1039C27.3557 32.518 28 29.7704 28 26.7966C28 24.8572 27.5436 22.5622 26.604 19.8793C25.6644 17.1964 24.5369 14.7074 23.2215 12.4448C22.0403 10.6023 20.6443 8.56587 19.0336 6.36784C17.4228 4.1698 14.604 0.775777 13.9597 0L10.5235 4.1698C8.85906 6.10924 7.24832 8.3396 5.71812 10.8932C4.18792 13.4468 2.84564 16.1943 1.71812 19.1358C0.536911 22.0773 0 24.6309 0 26.7966Z" fill="url(#paint0_linear_1_164)"/>
  <defs>
    <linearGradient id="paint0_linear_1_164" x1="14" y1="0" x2="14" y2="43.5405" gradientUnits="userSpaceOnUse">
      <stop stop-color="#60B0DD"/>
      <stop offset="0.894" stop-color="#1CA8F6" stop-opacity="0.106"/>
      <stop offset="1" stop-opacity="0"/>
    </linearGradient>
  </defs>
</svg>