<svg width="306" height="324" viewBox="0 0 306 324" fill="none" xmlns="http://www.w3.org/2000/svg">
<g filter="url(#filter0_f_1_29)">
<path d="M152.855 53.1342C127.788 87.1678 123.442 133.614 145.554 171.914C167.666 210.213 210.063 229.672 252.07 224.981C243.138 237.108 231.576 247.659 217.642 255.704C164.604 286.325 97.2955 269.038 67.3042 217.091C37.3128 165.145 55.9957 98.2101 109.034 67.5887C122.967 59.544 137.886 54.8059 152.855 53.1342Z" fill="#FFEE94"/>
</g>
<g filter="url(#filter1_i_1_29)">
<path d="M150.517 67.4758C127.636 98.5428 123.668 140.941 143.853 175.902C164.038 210.863 202.739 228.626 241.085 224.343C232.931 235.413 222.377 245.045 209.657 252.388C161.243 280.34 99.8012 264.56 72.4241 217.141C45.047 169.723 62.1014 108.623 110.516 80.6703C123.235 73.3268 136.854 69.0018 150.517 67.4758Z" fill="url(#paint0_linear_1_29)"/>
</g>
<defs>
<filter id="filter0_f_1_29" x="-0.00563049" y="0.134201" width="305.076" height="323.713" filterUnits="userSpaceOnUse" color-interpolation-filters="sRGB">
<feFlood flood-opacity="0" result="BackgroundImageFix"/>
<feBlend mode="normal" in="SourceGraphic" in2="BackgroundImageFix" result="shape"/>
<feGaussianBlur stdDeviation="26.5" result="effect1_foregroundBlur_1_29"/>
</filter>
<filter id="filter1_i_1_29" x="59.3617" y="67.4758" width="181.723" height="202.735" filterUnits="userSpaceOnUse" color-interpolation-filters="sRGB">
<feFlood flood-opacity="0" result="BackgroundImageFix"/>
<feBlend mode="normal" in="SourceGraphic" in2="BackgroundImageFix" result="shape"/>
<feColorMatrix in="SourceAlpha" type="matrix" values="0 0 0 0 0 0 0 0 0 0 0 0 0 0 0 0 0 0 127 0" result="hardAlpha"/>
<feOffset dy="4"/>
<feGaussianBlur stdDeviation="4"/>
<feComposite in2="hardAlpha" operator="arithmetic" k2="-1" k3="1"/>
<feColorMatrix type="matrix" values="0 0 0 0 1 0 0 0 0 1 0 0 0 0 1 0 0 0 0.55 0"/>
<feBlend mode="normal" in2="shape" result="effect1_innerShadow_1_29"/>
</filter>
<linearGradient id="paint0_linear_1_29" x1="155.5" y1="51" x2="119.175" y2="270.951" gradientUnits="userSpaceOnUse">
<stop stop-color="#FFEE94"/>
<stop offset="1" stop-color="#FF9900"/>
</linearGradient>
</defs>
</svg>
