<svg width="165" height="141" viewBox="0 0 165 141" fill="none" xmlns="http://www.w3.org/2000/svg">
<rect y="43" width="165" height="26" rx="13" fill="#090909" fill-opacity="0.3"/>
<rect y="115" width="165" height="26" rx="13" fill="#090909" fill-opacity="0.3"/>
<rect y="79" width="165" height="26" rx="13" fill="#090909" fill-opacity="0.3"/>
<path d="M29.5426 14.9091C29.5426 16.8267 29.1964 18.4839 28.5039 19.8807C27.8114 21.2775 26.8615 22.3546 25.6541 23.1122C24.4467 23.8698 23.0677 24.2486 21.517 24.2486C19.9664 24.2486 18.5874 23.8698 17.38 23.1122C16.1726 22.3546 15.2227 21.2775 14.5302 19.8807C13.8377 18.4839 13.4915 16.8267 13.4915 14.9091C13.4915 12.9915 13.8377 11.3343 14.5302 9.9375C15.2227 8.54072 16.1726 7.46354 17.38 6.70597C18.5874 5.94839 19.9664 5.5696 21.517 5.5696C23.0677 5.5696 24.4467 5.94839 25.6541 6.70597C26.8615 7.46354 27.8114 8.54072 28.5039 9.9375C29.1964 11.3343 29.5426 12.9915 29.5426 14.9091ZM27.4119 14.9091C27.4119 13.3348 27.1486 12.006 26.6218 10.9229C26.101 9.83984 25.3937 9.02012 24.5 8.46378C23.6122 7.90743 22.6179 7.62926 21.517 7.62926C20.4162 7.62926 19.4189 7.90743 18.5252 8.46378C17.6374 9.02012 16.9302 9.83984 16.4034 10.9229C15.8826 12.006 15.6222 13.3348 15.6222 14.9091C15.6222 16.4834 15.8826 17.8121 16.4034 18.8952C16.9302 19.9783 17.6374 20.7981 18.5252 21.3544C19.4189 21.9107 20.4162 22.1889 21.517 22.1889C22.6179 22.1889 23.6122 21.9107 24.5 21.3544C25.3937 20.7981 26.101 19.9783 26.6218 18.8952C27.1486 17.8121 27.4119 16.4834 27.4119 14.9091ZM38.2447 24V5.81818H44.3881C45.8145 5.81818 46.9805 6.07564 47.886 6.59055C48.7975 7.09955 49.4722 7.78906 49.9102 8.65909C50.3481 9.52912 50.5671 10.4998 50.5671 11.571C50.5671 12.6423 50.3481 13.6159 49.9102 14.4918C49.4781 15.3678 48.8093 16.0662 47.9038 16.587C46.9982 17.1019 45.8382 17.3594 44.4237 17.3594H40.0202V15.4062H44.3526C45.3292 15.4062 46.1134 15.2376 46.7053 14.9002C47.2971 14.5629 47.7262 14.1071 47.9925 13.533C48.2648 12.953 48.4009 12.299 48.4009 11.571C48.4009 10.843 48.2648 10.192 47.9925 9.6179C47.7262 9.0438 47.2942 8.59399 46.6964 8.26847C46.0986 7.93703 45.3055 7.77131 44.3171 7.77131H40.4464V24H38.2447ZM58.1195 7.77131V5.81818H71.7559V7.77131H66.0385V24H63.8368V7.77131H58.1195ZM82.3556 5.81818V24H80.1539V5.81818H82.3556ZM107.111 14.9091C107.111 16.8267 106.765 18.4839 106.072 19.8807C105.38 21.2775 104.43 22.3546 103.222 23.1122C102.015 23.8698 100.636 24.2486 99.0854 24.2486C97.5347 24.2486 96.1557 23.8698 94.9483 23.1122C93.7409 22.3546 92.791 21.2775 92.0985 19.8807C91.4061 18.4839 91.0598 16.8267 91.0598 14.9091C91.0598 12.9915 91.4061 11.3343 92.0985 9.9375C92.791 8.54072 93.7409 7.46354 94.9483 6.70597C96.1557 5.94839 97.5347 5.5696 99.0854 5.5696C100.636 5.5696 102.015 5.94839 103.222 6.70597C104.43 7.46354 105.38 8.54072 106.072 9.9375C106.765 11.3343 107.111 12.9915 107.111 14.9091ZM104.98 14.9091C104.98 13.3348 104.717 12.006 104.19 10.9229C103.669 9.83984 102.962 9.02012 102.068 8.46378C101.181 7.90743 100.186 7.62926 99.0854 7.62926C97.9846 7.62926 96.9873 7.90743 96.0936 8.46378C95.2058 9.02012 94.4985 9.83984 93.9718 10.9229C93.4509 12.006 93.1905 13.3348 93.1905 14.9091C93.1905 16.4834 93.4509 17.8121 93.9718 18.8952C94.4985 19.9783 95.2058 20.7981 96.0936 21.3544C96.9873 21.9107 97.9846 22.1889 99.0854 22.1889C100.186 22.1889 101.181 21.9107 102.068 21.3544C102.962 20.7981 103.669 19.9783 104.19 18.8952C104.717 17.8121 104.98 16.4834 104.98 14.9091ZM130.231 5.81818V24H128.1L118.192 9.72443H118.015V24H115.813V5.81818H117.944L127.887 20.1293H128.064V5.81818H130.231ZM149.579 10.3636C149.473 9.46402 149.041 8.76562 148.283 8.26847C147.526 7.77131 146.597 7.52273 145.496 7.52273C144.691 7.52273 143.986 7.65293 143.383 7.91335C142.785 8.17377 142.317 8.53184 141.98 8.98757C141.649 9.4433 141.483 9.96117 141.483 10.5412C141.483 11.0265 141.598 11.4438 141.829 11.793C142.066 12.1362 142.368 12.4233 142.735 12.6541C143.102 12.879 143.486 13.0655 143.889 13.2134C144.291 13.3555 144.661 13.4709 144.998 13.5597L146.845 14.0568C147.319 14.1811 147.845 14.3527 148.425 14.5717C149.011 14.7907 149.571 15.0896 150.103 15.4684C150.642 15.8413 151.086 16.3207 151.435 16.9066C151.784 17.4925 151.959 18.2116 151.959 19.0639C151.959 20.0464 151.701 20.9342 151.186 21.7273C150.677 22.5204 149.932 23.1507 148.949 23.6183C147.973 24.0858 146.786 24.3196 145.389 24.3196C144.087 24.3196 142.96 24.1095 142.007 23.6893C141.06 23.2691 140.314 22.6831 139.769 21.9315C139.231 21.1798 138.926 20.3068 138.855 19.3125H141.128C141.187 19.9991 141.418 20.5672 141.82 21.017C142.229 21.4609 142.744 21.7924 143.365 22.0114C143.992 22.2244 144.667 22.331 145.389 22.331C146.23 22.331 146.984 22.1948 147.653 21.9226C148.322 21.6444 148.851 21.2597 149.242 20.7685C149.633 20.2713 149.828 19.6913 149.828 19.0284C149.828 18.4247 149.659 17.9335 149.322 17.5547C148.985 17.1759 148.541 16.8681 147.99 16.6314C147.44 16.3946 146.845 16.1875 146.206 16.0099L143.969 15.3707C142.548 14.9624 141.424 14.3794 140.595 13.6218C139.766 12.8642 139.352 11.8729 139.352 10.6477C139.352 9.62973 139.627 8.74195 140.178 7.98438C140.734 7.22088 141.48 6.62902 142.415 6.20881C143.356 5.78267 144.407 5.5696 145.567 5.5696C146.739 5.5696 147.78 5.77971 148.692 6.19993C149.603 6.61423 150.325 7.18241 150.858 7.90447C151.396 8.62654 151.681 9.44626 151.71 10.3636H149.579Z" fill="black"/>
</svg>
